PathFileType  4	(X/Y/Z) C:\Users\antoi\Documents\MyRepositories\mobilecap\ResultsAnalysis
DataRate	CameraRate	NumFrames	NumMarkers	Units	OrigDataRate	OrigDataStartFrame	OrigNumFrames
100.0	100.0	4	51	mm	100.0	1	250
Frame#	Time	r_knee			r_shank_antsup			r_ankle			r_calc			r_5meta			r_toe			L_knee			L_shank_antsup			L_ankle			L_calc			L_5meta			L_toe			r_sh2			r_sh3			r_sh4			L_sh2			L_sh3			r_thigh1			r_thigh2			r_thigh3			r_thigh4			r_thigh5			L_thigh1			L_thigh2			L_thigh3			L_thigh4			r.ASIS			r.PSIS			L.ASIS			L.PSIS			C7			R_Shoulder			L_Shoulder			R_Sternum			L_Sternum			R_humerus			R_elbow_med			R_elbow_lat			R_forearm			R_wrist_radius			R_wrist_ulna			L_humerus			L_elbow_med			L_elbow_lat			L_forearm			L_wrist_radius			L_wrist_ulna			R_HJC			L_HJC			R_HJC_reg			L_HJC_reg			
		X1	Y1	Z1	X2	Y2	Z2	X3	Y3	Z3	X4	Y4	Z4	X5	Y5	Z5	X6	Y6	Z6	X7	Y7	Z7	X8	Y8	Z8	X9	Y9	Z9	X10	Y10	Z10	X11	Y11	Z11	X12	Y12	Z12	X13	Y13	Z13	X14	Y14	Z14	X15	Y15	Z15	X16	Y16	Z16	X17	Y17	Z17	X18	Y18	Z18	X19	Y19	Z19	X20	Y20	Z20	X21	Y21	Z21	X22	Y22	Z22	X23	Y23	Z23	X24	Y24	Z24	X25	Y25	Z25	X26	Y26	Z26	X27	Y27	Z27	X28	Y28	Z28	X29	Y29	Z29	X30	Y30	Z30	X31	Y31	Z31	X32	Y32	Z32	X33	Y33	Z33	X34	Y34	Z34	X35	Y35	Z35	X36	Y36	Z36	X37	Y37	Z37	X38	Y38	Z38	X39	Y39	Z39	X40	Y40	Z40	X41	Y41	Z41	X42	Y42	Z42	X43	Y43	Z43	X44	Y44	Z44	X45	Y45	Z45	X46	Y46	Z46	X47	Y47	Z47	X48	Y48	Z48	X49	Y49	Z49	X50	Y50	Z50	X51	Y51	Z51	

1	0.00000000	-1188.70046	806.67935	-445.95559	-1163.25218	708.05513	-452.52737	-1271.37391	400.83677	-463.21723	-1333.37893	365.32463	-511.57726	-1152.07125	351.14412	-423.46883	-1119.06006	379.46412	-477.44781	-1199.61632	812.15586	-733.76451	-1171.11182	727.06400	-721.18815	-1258.19873	406.11963	-715.91078	-1329.94360	360.71281	-671.10806	-1151.30237	350.76587	-752.54950	-1106.43605	374.94030	-695.08508	-1183.65123	596.53607	-455.31249	-1226.06796	718.61065	-411.56534	-1253.28677	605.97592	-410.13736	-1249.48651	747.37751	-762.01673	-1265.59950	626.16046	-765.42350	-1124.56732	1083.42504	-423.07068	-1122.49194	973.12489	-438.85127	-1173.48291	942.65751	-406.66487	-1236.99873	1074.34496	-402.78271	-1226.11313	959.50530	-420.28986	-1112.05772	1054.67185	-750.43289	-1109.33617	916.34936	-724.92070	-1214.46599	1048.17088	-787.99441	-1213.89003	917.84608	-756.10472	-1089.98265	1271.86444	-467.04642	-1292.47154	1325.15108	-550.07053	-1089.71998	1274.46386	-723.10412	-1290.20347	1325.71078	-644.22052	-1250.48139	1774.69634	-592.79834	-1183.71471	1743.62605	-424.56233	-1163.80806	1743.19245	-743.77438	-1123.90778	1702.09122	-563.33357	-1126.08537	1705.04650	-609.75010	-1140.03313	1610.70580	-378.69617	-1221.14334	1411.09576	-415.05304	-1196.05704	1418.19128	-355.29054	-1136.49224	1354.64689	-345.71316	-1084.98934	1194.91786	-389.64766	-1110.50379	1192.72184	-346.70630	-1122.87209	1602.54300	-795.48192	-1209.37547	1403.02657	-762.03446	-1166.20860	1413.92190	-827.07992	-1112.01143	1358.69684	-825.88701	-1062.84677	1188.65819	-788.62610	-1087.42369	1189.66824	-834.53672	-1181.71140	1193.45859	-495.15554	-1179.26987	1195.97788	-684.68558	-1171.93036	1202.66282	-505.63997	-1167.86024	1203.66722	-674.59484	
2	0.01000000	-1187.19183	806.57440	-446.47427	-1161.84846	707.61539	-452.91921	-1271.41424	400.80807	-463.26124	-1333.30638	365.30988	-511.54655	-1152.07332	351.15941	-423.46976	-1119.08023	379.49537	-477.44651	-1199.25450	812.16455	-733.80226	-1170.63025	727.00430	-721.48481	-1258.23537	406.08174	-715.86706	-1329.96677	360.66460	-671.10230	-1151.32300	350.76442	-752.54951	-1106.51900	374.87091	-694.98835	-1182.78840	596.09923	-455.60296	-1224.33870	718.32665	-412.22415	-1252.57472	606.04594	-410.20131	-1249.12625	747.29530	-761.91218	-1265.33769	626.11814	-765.36096	-1124.37643	1083.22861	-423.15669	-1121.62252	973.22042	-439.03987	-1172.39908	943.05733	-405.93095	-1236.56418	1073.79330	-403.09748	-1225.25779	959.06033	-420.60571	-1111.79075	1054.50309	-750.43897	-1109.04882	916.24404	-724.80400	-1214.22015	1048.00787	-787.90185	-1213.54458	917.71265	-756.12393	-1089.90003	1271.63741	-467.06833	-1292.42959	1325.08143	-550.15032	-1089.34658	1274.52801	-722.89603	-1290.08295	1325.62059	-644.13602	-1249.40873	1774.74598	-592.76929	-1182.77593	1743.49734	-424.77772	-1162.89075	1742.94184	-743.37557	-1123.22042	1701.76464	-563.26286	-1125.38967	1704.79746	-609.59716	-1139.18763	1610.74609	-378.70525	-1220.88713	1411.40493	-414.91157	-1195.88873	1418.44302	-355.26904	-1136.25731	1354.77951	-345.52370	-1084.74101	1195.07312	-389.27246	-1110.37539	1192.80097	-346.59291	-1122.04930	1602.17760	-794.92897	-1209.21323	1403.16867	-762.44766	-1166.06511	1414.07505	-827.21347	-1111.94116	1358.70818	-826.14509	-1062.86090	1188.67250	-788.97983	-1087.63878	1189.59415	-834.95139	-1181.62865	1193.27428	-495.21033	-1179.01727	1195.99166	-684.73520	-1171.84233	1202.72842	-505.67973	-1167.62763	1203.69685	-674.48204	
3	0.02000000	-1185.70394	806.26987	-446.74662	-1160.45022	707.15299	-453.21779	-1271.44743	400.84622	-463.34571	-1333.32727	365.29129	-511.53818	-1152.08154	351.14034	-423.47488	-1119.10479	379.50641	-477.44623	-1198.86441	812.10884	-733.78686	-1170.14363	726.85788	-721.54388	-1258.24676	406.06409	-715.89486	-1329.98215	360.63528	-671.10886	-1151.33309	350.74549	-752.57747	-1106.53505	374.90084	-695.00953	-1181.93374	595.68470	-455.82251	-1222.84249	718.19891	-412.65836	-1251.56856	605.86569	-410.44456	-1248.67551	747.17486	-761.80222	-1265.06652	626.04962	-765.29823	-1123.89108	1083.08126	-423.14277	-1120.78690	973.19546	-439.22777	-1171.41719	943.16502	-405.48213	-1236.25353	1073.42912	-403.14467	-1224.42637	958.49355	-420.90940	-1111.66382	1054.42704	-750.67124	-1108.84869	916.37556	-724.92733	-1213.90070	1047.96643	-788.06232	-1213.19353	917.64760	-756.22769	-1089.87853	1271.48218	-467.07857	-1292.39702	1324.94977	-550.17727	-1088.90528	1274.70695	-722.64707	-1289.98597	1325.53652	-644.07261	-1248.36847	1774.81694	-592.76105	-1181.87613	1743.39993	-424.75521	-1161.91237	1742.85825	-743.35493	-1122.44542	1701.46861	-563.15309	-1124.56077	1704.45316	-609.45860	-1138.37551	1610.71709	-378.71274	-1220.75230	1411.82315	-414.58693	-1195.70054	1418.75695	-355.16553	-1136.11077	1354.91318	-345.25195	-1084.49964	1195.24458	-388.94023	-1110.23931	1192.95023	-346.30317	-1121.22202	1601.98120	-794.62705	-1208.92973	1403.34790	-762.64114	-1165.93150	1414.24004	-827.37855	-1111.93868	1358.66162	-826.37358	-1062.98002	1188.60877	-789.41733	-1087.94183	1189.51459	-835.36303	-1181.51700	1193.10047	-495.27066	-1178.68638	1196.06923	-684.78865	-1171.67414	1202.76591	-505.73812	-1167.34406	1203.81968	-674.36927	
4	0.03000000	-1184.11425	805.75137	-446.95850	-1159.04367	706.65366	-453.46564	-1271.42738	400.93704	-463.40502	-1333.40205	365.27381	-511.54614	-1152.08667	351.13950	-423.48610	-1119.12752	379.50460	-477.44430	-1198.40990	812.08745	-733.79716	-1169.59193	726.62672	-721.42633	-1258.24399	406.04698	-715.97487	-1329.98900	360.62644	-671.13197	-1151.33628	350.71373	-752.61686	-1106.51446	374.95929	-695.06252	-1181.07266	595.31160	-456.02267	-1221.47641	718.00040	-412.96436	-1250.37875	605.60705	-410.86055	-1248.10736	747.06902	-761.75825	-1264.75494	625.97700	-765.30972	-1122.86927	1082.91138	-423.18507	-1120.05548	973.11079	-439.26262	-1170.54614	942.87283	-405.52969	-1236.02304	1073.05130	-403.21133	-1223.63774	957.93263	-421.17129	-1110.92323	1054.37636	-750.61909	-1108.62835	916.63348	-725.22869	-1213.53907	1047.95726	-788.41745	-1212.81847	917.62878	-756.42201	-1089.92724	1271.34463	-467.04508	-1292.35811	1324.74177	-550.11083	-1088.60557	1274.84800	-722.49965	-1289.91375	1325.44887	-644.04867	-1247.30488	1774.87884	-592.69805	-1180.94326	1743.35718	-424.64712	-1160.89025	1742.91472	-743.61561	-1121.56165	1701.21543	-563.05727	-1123.60636	1704.03370	-609.42791	-1137.59592	1610.69275	-378.66632	-1220.72545	1412.34203	-413.98766	-1195.48989	1419.19772	-354.97147	-1135.99541	1355.11054	-344.88388	-1084.31454	1195.43415	-388.64357	-1110.12842	1193.12318	-345.94030	-1120.49222	1601.91064	-794.54609	-1208.62388	1403.48877	-762.65451	-1165.81164	1414.39427	-827.54994	-1111.95066	1358.62202	-826.63117	-1063.20129	1188.45604	-789.95030	-1088.32819	1189.45385	-835.93798	-1181.43083	1192.91276	-495.32326	-1178.43663	1196.11262	-684.83517	-1171.52575	1202.62893	-505.80066	-1167.13974	1203.89746	-674.35676	
